# xmcd
#
# Track frame offsets:
#	150
#	11176
#	22219
#	31483
#	43167
#	54249
#	64412
#	74354
#	86107
#	97377
#
# Disc length: 1440 seconds
#
# Revision: 1
# Processed by: cddbd v1.5.2PL0 Copyright (c) Steve Scherf et al.
# Submitted via: audiograbber 1.83.01
#
DISCID=96059e0a
DTITLE=Various Artist - honky tonk angels
DYEAR=2012
DGENRE=Country
TTITLE0=dolly parton - it wasn't god who made honky tonk angels
TTITLE1=june stearns - three sides to the story
TTITLE2=dottie west - men with evil hearts
TTITLE3=melba montgomery - i'm no longer in your heart
TTITLE4=patsy cline - stop the world (and let me off)
TTITLE5=jan howard - the one you slip around with
TTITLE6=lois williams - bottles of wine
TTITLE7=sylvia mobley - swapped for a bottle
TTITLE8=lois williams - bright lights a burnin'
TTITLE9=carol lee - i'm surprised at me
EXTD=
EXTT0=
EXTT1=
EXTT2=
EXTT3=
EXTT4=
EXTT5=
EXTT6=
EXTT7=
EXTT8=
EXTT9=
PLAYORDER=
